<svg width="1010" height="608" xmlns="http://www.w3.org/2000/svg" xmlns:xlink="http://www.w3.org/1999/xlink" overflow="hidden"><defs><clipPath id="clip0"><path d="M131 76 1141 76 1141 684 131 684Z" fill-rule="evenodd" clip-rule="evenodd"/></clipPath></defs><g clip-path="url(#clip0)" transform="translate(-131 -76)"><path d="M132.5 92.8337C132.5 87.1266 137.127 82.5001 142.834 82.5001L289.166 82.5001C294.874 82.5001 299.5 87.1266 299.5 92.8337L299.5 134.166C299.5 139.874 294.874 144.5 289.166 144.5L142.834 144.5C137.127 144.5 132.5 139.874 132.5 134.166Z" stroke="#2F528F" stroke-width="1.33333" stroke-miterlimit="8" fill="#4472C4" fill-rule="evenodd"/><text fill="#FFFFFF" font-family="DengXian,DengXian_MSFontService,sans-serif" font-weight="400" font-size="24" transform="translate(179.893 106)">第三方<tspan x="-27.4133" y="29">HTTP</tspan><tspan x="27.42" y="29">客户端</tspan></text><path d="M216 144 216 682.128" stroke="#4472C4" stroke-width="2" stroke-linejoin="round" stroke-miterlimit="10" stroke-dasharray="8 6" fill="none" fill-rule="evenodd"/><path d="M393.5 91.8335C393.5 86.1265 398.127 81.5001 403.834 81.5001L570.167 81.5001C575.874 81.5001 580.5 86.1265 580.5 91.8335L580.5 133.167C580.5 138.874 575.874 143.5 570.167 143.5L403.834 143.5C398.127 143.5 393.5 138.874 393.5 133.167Z" stroke="#AE5A21" stroke-width="1.33333" stroke-miterlimit="8" fill="#ED7D31" fill-rule="evenodd"/><text fill="#FFFFFF" font-family="DengXian,DengXian_MSFontService,sans-serif" font-weight="400" font-size="24" transform="translate(426.429 119)">转发服务端</text><path d="M486 143 486 682.117" stroke="#ED7D31" stroke-width="2" stroke-linejoin="round" stroke-miterlimit="10" stroke-dasharray="8 6" fill="none" fill-rule="evenodd"/><path d="M673.5 92.8335C673.5 87.1265 678.127 82.5001 683.834 82.5001L850.167 82.5001C855.874 82.5001 860.5 87.1265 860.5 92.8335L860.5 134.167C860.5 139.874 855.874 144.5 850.167 144.5L683.834 144.5C678.127 144.5 673.5 139.874 673.5 134.167Z" stroke="#BC8C00" stroke-width="1.33333" stroke-miterlimit="8" fill="#FFC000" fill-rule="evenodd"/><text fill="#FFFFFF" font-family="DengXian,DengXian_MSFontService,sans-serif" font-weight="400" font-size="24" transform="translate(706.649 120)">转发客户端</text><path d="M767 144 767 683.117" stroke="#FFC000" stroke-width="2" stroke-linejoin="round" stroke-miterlimit="10" stroke-dasharray="8 6" fill="none" fill-rule="evenodd"/><path d="M953.5 92.8335C953.5 87.1265 958.127 82.5001 963.834 82.5001L1130.17 82.5001C1135.87 82.5001 1140.5 87.1265 1140.5 92.8335L1140.5 134.167C1140.5 139.874 1135.87 144.5 1130.17 144.5L963.834 144.5C958.127 144.5 953.5 139.874 953.5 134.167Z" stroke="#507E32" stroke-width="1.33333" stroke-miterlimit="8" fill="#70AD47" fill-rule="evenodd"/><text fill="#FFFFFF" font-family="DengXian,DengXian_MSFontService,sans-serif" font-weight="400" font-size="24" transform="translate(978.205 120)">内网<tspan x="47.9999" y="0">WEB API</tspan></text><path d="M1046 144 1046 683.117" stroke="#70AD47" stroke-width="2" stroke-linejoin="round" stroke-miterlimit="10" stroke-dasharray="8 6" fill="none" fill-rule="evenodd"/><path d="M216 346 479.865 346 479.865 348 216 348ZM478.532 343 486.532 347 478.532 351Z" fill="#4472C4"/><text font-family="DengXian,DengXian_MSFontService,sans-serif" font-weight="400" font-size="21" transform="translate(286.774 312)">发送<tspan x="42.6667" y="0">HTTP</tspan><tspan x="91.3333" y="0">请求</tspan><tspan x="0" y="26">携带项目编号</tspan><tspan x="15.8258" y="191">转发响应</tspan></text><rect x="426.5" y="167.5" width="121" height="39" stroke="#787878" stroke-width="1.33333" stroke-miterlimit="8" fill="#A5A5A5"/><text fill="#FFFFFF" font-family="DengXian,DengXian_MSFontService,sans-serif" font-weight="400" font-size="24" transform="translate(438.429 194)">监听端口</text><path d="M3.74659e-07-1 273.553-0.999897 273.553 1.0001-3.74659e-07 1ZM272.22-3.9999 280.22 0.000104987 272.22 4.0001Z" fill="#FFC000" transform="matrix(-1 -8.74228e-08 -8.74228e-08 1 766.22 256)"/><text font-family="DengXian,DengXian_MSFontService,sans-serif" font-weight="400" font-size="21" transform="translate(565.265 241)">连接服务器</text><path d="M3.74659e-07-1 273.553-0.999897 273.553 1.0001-3.74659e-07 1ZM272.22-3.9999 280.22 0.000104987 272.22 4.0001Z" fill="#FFC000" transform="matrix(-1 -8.74228e-08 -8.74228e-08 1 766.22 311)"/><text font-family="DengXian,DengXian_MSFontService,sans-serif" font-weight="400" font-size="21" transform="translate(506.253 295)">登录指令，携带项目编号</text><path d="M486 380 759.553 380 759.553 382 486 382ZM758.22 377 766.22 381 758.22 385Z" fill="#ED7D31"/><text font-family="DengXian,DengXian_MSFontService,sans-serif" font-weight="400" font-size="21" transform="translate(557.935 343)">根据项目编号<tspan x="0" y="26">转发</tspan><tspan x="42.6667" y="26">HTTP</tspan><tspan x="91.3334" y="26">请求</tspan></text><path d="M3.74659e-07-1 273.553-0.999897 273.553 1.0001-3.74659e-07 1ZM272.22-3.9999 280.22 0.000104987 272.22 4.0001Z" fill="#FFC000" transform="matrix(-1 -8.74228e-08 -8.74228e-08 1 766.22 482)"/><text font-family="DengXian,DengXian_MSFontService,sans-serif" font-weight="400" font-size="21" transform="translate(528.237 468)">转发<tspan x="42.6666" y="0">内</tspan><tspan x="64" y="0">网</tspan><tspan x="85.3333" y="0">API</tspan><tspan x="121.833" y="0">HTTP</tspan><tspan x="170.5" y="0">响应</tspan></text><path d="M3.74659e-07-1 273.553-0.999897 273.553 1.0001-3.74659e-07 1ZM272.22-3.9999 280.22 0.000104987 272.22 4.0001Z" fill="#FFC000" transform="matrix(-1 -8.74228e-08 -8.74228e-08 1 766.22 584)"/><text font-family="DengXian,DengXian_MSFontService,sans-serif" font-weight="400" font-size="21" transform="translate(554.192 567)">定时发送心跳包</text><path d="M3.88957e-07-1 263.253-0.999898 263.253 1.0001-3.88957e-07 1ZM261.919-3.9999 269.919 0.000104987 261.919 4.0001Z" fill="#ED7D31" transform="matrix(-1 -8.74228e-08 -8.74228e-08 1 485.919 517)"/><path d="M766 394 1039.67 394 1039.67 396 766 396ZM1038.34 391 1046.34 395 1038.34 399Z" fill="#FFC000"/><text font-family="DengXian,DengXian_MSFontService,sans-serif" font-weight="400" font-size="21" transform="translate(852.62 385)">请求内网<tspan x="85.3333" y="0">API</tspan></text><path d="M3.74659e-07-1 273.553-0.999897 273.553 1.0001-3.74659e-07 1ZM272.22-3.9999 280.22 0.000104987 272.22 4.0001Z" fill="#70AD47" transform="matrix(-1 -8.74228e-08 -8.74228e-08 1 1046.22 461)"/><text font-family="DengXian,DengXian_MSFontService,sans-serif" font-weight="400" font-size="21" transform="translate(868.103 450)">HTTP<tspan x="48.6667" y="0">响应</tspan></text></g></svg>