<svg width="725" height="418" xmlns="http://www.w3.org/2000/svg" xmlns:xlink="http://www.w3.org/1999/xlink" overflow="hidden"><defs><clipPath id="clip0"><path d="M116 71 841 71 841 489 116 489Z" fill-rule="evenodd" clip-rule="evenodd"/></clipPath></defs><g clip-path="url(#clip0)" transform="translate(-116 -71)"><path d="M118.5 86.3337C118.5 78.6936 124.694 72.5001 132.334 72.5001L303.666 72.5001C311.307 72.5001 317.5 78.6936 317.5 86.3337L317.5 141.666C317.5 149.307 311.307 155.5 303.666 155.5L132.334 155.5C124.694 155.5 118.5 149.307 118.5 141.666Z" stroke="#2F528F" stroke-width="1.33333" stroke-miterlimit="8" fill="#4472C4" fill-rule="evenodd"/><text fill="#FFFFFF" font-family="DengXian,DengXian_MSFontService,sans-serif" font-weight="400" font-size="24" transform="translate(181.469 122)">客户端</text><path d="M640.5 86.3336C640.5 78.6935 646.694 72.5001 654.334 72.5001L826.667 72.5001C834.307 72.5001 840.5 78.6935 840.5 86.3336L840.5 141.667C840.5 149.307 834.307 155.5 826.667 155.5L654.334 155.5C646.694 155.5 640.5 149.307 640.5 141.667Z" stroke="#AE5A21" stroke-width="1.33333" stroke-miterlimit="8" fill="#ED7D31" fill-rule="evenodd"/><text fill="#FFFFFF" font-family="DengXian,DengXian_MSFontService,sans-serif" font-weight="400" font-size="24" transform="translate(703.918 121)">服务器</text><path d="M219 148 219 480.056" stroke="#4472C4" stroke-width="2" stroke-miterlimit="8" fill="none" fill-rule="evenodd"/><path d="M741 155 744.246 487.22" stroke="#ED7D31" stroke-width="2" stroke-miterlimit="8" fill="none" fill-rule="evenodd"/><path d="M217.5 221.167 733.282 221.167 733.282 221.833 217.5 221.833ZM731.949 217.5 739.949 221.5 731.949 225.5Z"/><text font-family="Microsoft YaHei,Microsoft YaHei_MSFontService,sans-serif" font-weight="400" font-size="16" transform="translate(429.121 192)">SYN  <tspan x="0" y="20">seq=x</tspan></text><path d="M0.0766245-0.324407 516.037 121.545 515.884 122.194-0.0766245 0.324407ZM515.583 117.67 522.449 123.402 513.744 125.456Z" transform="matrix(-1 -8.74228e-08 -8.74228e-08 1 739.949 223.5)"/><text font-family="Microsoft YaHei,Microsoft YaHei_MSFontService,sans-serif" font-weight="400" font-size="16" transform="translate(392.614 252)">SYN  ACK <tspan x="0" y="20">seq=y ack=x + 1</tspan></text><path d="M219.547 348.17 734.341 421.106 734.248 421.766 219.453 348.83ZM733.536 417.289 740.896 422.372 732.414 425.21Z"/><text font-family="Microsoft YaHei,Microsoft YaHei_MSFontService,sans-serif" font-weight="400" font-size="16" transform="translate(392.614 339)">ACK<tspan x="0" y="20">a</tspan><tspan x="8.83331" y="20">ck = y + 1</tspan></text></g></svg>