<svg width="725" height="477" xmlns="http://www.w3.org/2000/svg" xmlns:xlink="http://www.w3.org/1999/xlink" overflow="hidden"><defs><clipPath id="clip0"><path d="M116 71 841 71 841 548 116 548Z" fill-rule="evenodd" clip-rule="evenodd"/></clipPath></defs><g clip-path="url(#clip0)" transform="translate(-116 -71)"><path d="M118.5 86.3337C118.5 78.6936 124.694 72.5001 132.334 72.5001L303.666 72.5001C311.307 72.5001 317.5 78.6936 317.5 86.3337L317.5 141.666C317.5 149.307 311.307 155.5 303.666 155.5L132.334 155.5C124.694 155.5 118.5 149.307 118.5 141.666Z" stroke="#2F528F" stroke-width="1.33333" stroke-miterlimit="8" fill="#4472C4" fill-rule="evenodd"/><text fill="#FFFFFF" font-family="DengXian,DengXian_MSFontService,sans-serif" font-weight="400" font-size="24" transform="translate(181.469 122)">客户端</text><path d="M640.5 86.3336C640.5 78.6935 646.694 72.5001 654.334 72.5001L826.667 72.5001C834.307 72.5001 840.5 78.6935 840.5 86.3336L840.5 141.667C840.5 149.307 834.307 155.5 826.667 155.5L654.334 155.5C646.694 155.5 640.5 149.307 640.5 141.667Z" stroke="#AE5A21" stroke-width="1.33333" stroke-miterlimit="8" fill="#ED7D31" fill-rule="evenodd"/><text fill="#FFFFFF" font-family="DengXian,DengXian_MSFontService,sans-serif" font-weight="400" font-size="24" transform="translate(703.918 121)">服务器</text><path d="M0 0 1.86226 391.256" stroke="#4472C4" stroke-width="2" stroke-miterlimit="8" fill="none" fill-rule="evenodd" transform="matrix(-1 -8.74228e-08 -8.74228e-08 1 218.862 148)"/><path d="M741 155 744.246 546.181" stroke="#ED7D31" stroke-width="2" stroke-miterlimit="8" fill="none" fill-rule="evenodd"/><path d="M217.5 221.167 733.282 221.167 733.282 221.833 217.5 221.833ZM731.949 217.5 739.949 221.5 731.949 225.5Z"/><text font-family="Microsoft YaHei,Microsoft YaHei_MSFontService,sans-serif" font-weight="400" font-size="16" transform="translate(419.265 171)">PSH<tspan x="40.6667" y="0">AC</tspan><tspan x="62.44" y="0">K</tspan><tspan x="0" y="20">seq = x ack = y</tspan><tspan x="0" y="39">l</tspan><tspan x="4.33334" y="39">ength = a</tspan></text><path d="M0.0766245-0.324407 516.037 121.545 515.884 122.194-0.0766245 0.324407ZM515.583 117.67 522.449 123.402 513.744 125.456Z" transform="matrix(-1 -8.74228e-08 -8.74228e-08 1 739.949 223.5)"/><text font-family="Microsoft YaHei,Microsoft YaHei_MSFontService,sans-serif" font-weight="400" font-size="16" transform="translate(425.437 249)">ACK<tspan x="0" y="20">a</tspan><tspan x="8.83331" y="20">ck = x + a</tspan></text><path d="M0.0814635-0.323226 517.683 130.13 517.52 130.776-0.0814635 0.323226ZM517.287 126.248 524.067 132.082 515.332 134.006Z" transform="matrix(-1 -8.74228e-08 -8.74228e-08 1 741.567 322.5)"/><text font-family="Microsoft YaHei,Microsoft YaHei_MSFontService,sans-serif" font-weight="400" font-size="16" transform="translate(428.587 317)">PSH<tspan x="36" y="0">ACK</tspan><tspan x="0" y="20">s</tspan><tspan x="7.33334" y="20">eq = y </tspan><tspan x="0" y="39">ack = x + a</tspan><tspan x="0" y="58">l</tspan><tspan x="4.33334" y="58">ength = b</tspan></text><path d="M219.538 454.169 737.555 513.223 737.48 513.885 219.462 454.831ZM736.646 509.429 744.142 514.309 735.74 517.377Z"/><text font-family="Microsoft YaHei,Microsoft YaHei_MSFontService,sans-serif" font-weight="400" font-size="16" transform="translate(428.587 448)">ACK<tspan x="0" y="20">a</tspan><tspan x="8.83334" y="20">ck = y + b</tspan></text></g></svg>