<svg width="627" height="500" xmlns="http://www.w3.org/2000/svg" xmlns:xlink="http://www.w3.org/1999/xlink" overflow="hidden"><defs><clipPath id="clip0"><path d="M308 140 935 140 935 640 308 640Z" fill-rule="evenodd" clip-rule="evenodd"/></clipPath></defs><g clip-path="url(#clip0)" transform="translate(-308 -140)"><path d="M309.5 152.5C309.5 146.425 314.425 141.5 320.5 141.5L462.5 141.5C468.575 141.5 473.5 146.425 473.5 152.5L473.5 196.5C473.5 202.575 468.575 207.5 462.5 207.5L320.5 207.5C314.425 207.5 309.5 202.575 309.5 196.5Z" stroke="#2F528F" stroke-width="1.33333" stroke-miterlimit="8" fill="#4472C4" fill-rule="evenodd"/><text fill="#FFFFFF" font-family="DengXian,DengXian_MSFontService,sans-serif" font-weight="400" font-size="24" transform="translate(355.046 182)">客户端</text><path d="M770.5 152.5C770.5 146.425 775.425 141.5 781.5 141.5L923.5 141.5C929.575 141.5 934.5 146.425 934.5 152.5L934.5 196.5C934.5 202.575 929.575 207.5 923.5 207.5L781.5 207.5C775.425 207.5 770.5 202.575 770.5 196.5Z" stroke="#AE5A21" stroke-width="1.33333" stroke-miterlimit="8" fill="#ED7D31" fill-rule="evenodd"/><text fill="#FFFFFF" font-family="DengXian,DengXian_MSFontService,sans-serif" font-weight="400" font-size="24" transform="translate(815.817 182)">服务器</text><path d="M391 207 391 638.56" stroke="#4472C4" stroke-width="2" stroke-miterlimit="8" fill="none" fill-rule="evenodd"/><path d="M0 0 1.76147 431.622" stroke="#ED7D31" stroke-width="2" stroke-miterlimit="8" fill="none" fill-rule="evenodd" transform="matrix(-1 -8.74228e-08 -8.74228e-08 1 853.761 207)"/><path d="M391.5 271.167 847.365 271.167 847.365 271.833 391.5 271.833ZM846.032 267.5 854.032 271.5 846.032 275.5Z"/><text font-family="Microsoft YaHei,Microsoft YaHei_MSFontService,sans-serif" font-weight="400" font-size="16" transform="translate(559.108 243)">FIN ACK<tspan x="0" y="20">seq</tspan><tspan x="31.1666" y="20">=</tspan><tspan x="47.6666" y="20">x</tspan><tspan x="69.8333" y="20">ack = y</tspan></text><path d="M0.102746-0.317103 455.851 147.352 455.646 147.986-0.102746 0.317103ZM455.714 143.454 462.092 149.725 453.248 151.064Z" transform="matrix(-1 -8.74228e-08 -8.74228e-08 1 853.592 273.5)"/><text font-family="Microsoft YaHei,Microsoft YaHei_MSFontService,sans-serif" font-weight="400" font-size="16" transform="translate(557.347 298)">FIN ACK<tspan x="0" y="20">seq</tspan><tspan x="31.1667" y="20">=</tspan><tspan x="47.6667" y="20">y   ack = x + 1</tspan></text><path d="M391.56 423.172 845.332 505.65 845.212 506.306 391.44 423.828ZM844.675 501.804 851.83 507.17 843.244 509.675Z"/><text font-family="Microsoft YaHei,Microsoft YaHei_MSFontService,sans-serif" font-weight="400" font-size="16" transform="translate(575.636 427)">ACK<tspan x="0" y="20">a</tspan><tspan x="8.83331" y="20">ck = y + 1</tspan></text></g></svg>